<svg id="visual" viewBox="0 0 960 540" width="960" height="540" xmlns="http://www.w3.org/2000/svg" xmlns:xlink="http://www.w3.org/1999/xlink" version="1.1"><rect x="0" y="0" width="960" height="540" fill="#2d2a2e"></rect><path d="M0 144L80 188L160 191L240 171L320 192L400 175L480 104L560 71L640 127L720 88L800 134L880 107L960 108L960 541L880 541L800 541L720 541L640 541L560 541L480 541L400 541L320 541L240 541L160 541L80 541L0 541Z" fill="#5b595c"></path><path d="M0 279L80 262L160 322L240 332L320 258L400 317L480 328L560 316L640 252L720 272L800 297L880 296L960 238L960 541L880 541L800 541L720 541L640 541L560 541L480 541L400 541L320 541L240 541L160 541L80 541L0 541Z" fill="#8d8b8c"></path><path d="M0 410L80 382L160 412L240 368L320 414L400 388L480 395L560 423L640 379L720 402L800 423L880 463L960 409L960 541L880 541L800 541L720 541L640 541L560 541L480 541L400 541L320 541L240 541L160 541L80 541L0 541Z" fill="#c1c0c0"></path></svg>