<?xml version="1.0" standalone="no"?>
<!DOCTYPE svg PUBLIC "-//W3C//DTD SVG 20010904//EN"
 "http://www.w3.org/TR/2001/REC-SVG-20010904/DTD/svg10.dtd">
<svg
    class="marshians-logo"
    version="1.0"
    xmlns="http://www.w3.org/2000/svg"
    viewBox="0 0 1500 1500"
    preserveAspectRatio="xMidYMid meet">
    <rect width="100%" height="100%" class="background" stroke="none" fill="#2d2a2e"/>
    <path
        fill="#a9dc76"
        transform="translate(225,1390) scale(0.1,-0.1)"
        stroke="none"
        class="alien-face"
        d="M4845 12789 c-822 -47 -1550 -229 -2210 -554 -483 -237 -826 -483 -1205 -864 -291 -292 -481 -535 -679 -866 -417 -698 -653 -1484 -733 -2435 -26 -315 -14 -1132 23 -1535 95 -1033 356 -1798 909 -2670 316 -497 846 -1183 1521 -1965 989 -1148 1752 -1724 2479 -1871 165 -34 435 -34 600 0 581 118 1206 526 1911 1249 551 564 1406 1597 1872 2263 575 821 889 1535 1042 2369 77 422 111 821 121 1415 13 719 -46 1276 -196 1851 -154 591 -423 1176 -751 1637 -253 353 -601 712 -941 968 -899 677 -2058 1025 -3388 1017 -129 0 -298 -5 -375 -9z m-2630 -6149 c446 -64 1102 -602 1700 -1395 564 -748 893 -1494 836 -1896 -28 -203 -125 -313 -318 -363 -165 -43 -449 -41 -678 5 -900 180 -1888 974 -2265 1819 -127 285 -191 596 -176 855 36 615 318 961 801 983 17 1 62 -3 100 -8z m6350 -17 c202 -43 385 -195 492 -408 99 -196 150 -516 124 -775 -52 -512 -313 -1015 -771 -1484 -638 -654 -1491 -1050 -2149 -997 -220 18 -327 56 -411 148 -194 212 -122 680 199 1298 461 888 1292 1814 1901 2120 237 119 400 145 615 98z m-2255 -4823 c0 -36 -120 -181 -203 -243 -179 -138 -403 -212 -714 -238 -385 -32 -766 58 -1000 238 -83 62 -203 207 -203 243 0 7 336 10 1060 10 724 0 1060 -3 1060 -10z" />
</svg>
